HIERARCHY
ROOT hip
{
	OFFSET 0.000000 0.000000 0.000000 
	CHANNELS 6 Xposition Yposition Zposition Xrotation Zrotation Yrotation
	JOINT abdomen
	{
		OFFSET 0.000000 3.402643 0.000000 
		CHANNELS 3 Xrotation Zrotation Yrotation
		JOINT chest
		{
			OFFSET 0.000000 8.438565 -0.680529 
			CHANNELS 3 Xrotation Zrotation Yrotation
			JOINT neck
			{
				OFFSET 0.000000 10.207942 -0.272212 
				CHANNELS 3 Xrotation Zrotation Yrotation
				JOINT head
				{
					OFFSET 0.000000 3.130431 0.000000 
					CHANNELS 3 Xrotation Zrotation Yrotation
					End Site
					{
						OFFSET 0.000000 3.130435 0.000000 
					}
				}
			}
			JOINT lCollar
			{
				OFFSET 3.470700 6.669187 -0.816635 
				CHANNELS 3 Yrotation Zrotation Xrotation
				JOINT lShldr
				{
					OFFSET 3.198488 0.000000 0.000000 
					CHANNELS 3 Zrotation Yrotation Xrotation
					JOINT lForeArm
					{
						OFFSET 10.139888 0.000000 0.000000 
						CHANNELS 3 Yrotation Zrotation Xrotation
						JOINT lHand
						{
							OFFSET 8.370511 0.000000 0.000000 
							CHANNELS 3 Zrotation Yrotation Xrotation
							End Site
							{
								OFFSET 4.083176 0.000000 0.000000 
							}
						}
					}
				}
			}
			JOINT rCollar
			{
				OFFSET -3.470700 6.669187 -0.816635 
				CHANNELS 3 Yrotation Zrotation Xrotation
				JOINT rShldr
				{
					OFFSET -3.198488 0.000000 0.000000 
					CHANNELS 3 Zrotation Yrotation Xrotation
					JOINT rForeArm
					{
						OFFSET -10.139888 0.000000 0.000000 
						CHANNELS 3 Yrotation Zrotation Xrotation
						JOINT rHand
						{
							OFFSET -8.370511 0.000000 0.000000 
							CHANNELS 3 Zrotation Yrotation Xrotation
							End Site
							{
								OFFSET -4.083176 0.000000 0.000000 
							}
						}
					}
				}
			}
		}
	}
	JOINT lThigh
	{
		OFFSET 5.308129 -1.633274 1.361059 
		CHANNELS 3 Xrotation Zrotation Yrotation
		JOINT lShin
		{
			OFFSET -2.041588 -20.007561 0.000000 
			CHANNELS 3 Xrotation Zrotation Yrotation
			JOINT lFoot
			{
				OFFSET 0.000000 -19.190928 -1.224953 
				CHANNELS 3 Xrotation Yrotation Zrotation
				End Site
				{
					OFFSET 0.000000 -2.449906 4.627600 
				}
			}
		}
	}
	JOINT rThigh
	{
		OFFSET -5.308129 -1.633274 1.361059 
		CHANNELS 3 Xrotation Zrotation Yrotation
		JOINT rShin
		{
			OFFSET 2.041588 -20.007561 0.000000 
			CHANNELS 3 Xrotation Zrotation Yrotation
			JOINT rFoot
			{
				OFFSET 0.000000 -19.190928 -1.224953 
				CHANNELS 3 Xrotation Yrotation Zrotation
				End Site
				{
					OFFSET 0.000000 -2.449906 4.627600 
				}
			}
		}
	}
}
MOTION
Frames: 6
Frame Time: 0.016667
-0.358139 41.689426 0.527553 -3.267290 -3.344180 3.793990 -19.082199 2.774620 -3.779180 15.486700 5.223740 -1.722410 7.838270 15.212000 -6.706000 11.249900 10.973800 -2.365880 2.000000 -2.000000 0.000000 60.305000 -127.536003 56.323502 50.615700 -0.301599 0.105725 0.046157 -0.022054 -144.822006 -2.000000 2.000000 0.000000 -135.313995 134.893997 0.655947 -71.074799 0.259191 0.129332 -0.054586 0.002003 -134.147995 -14.874716 3.531226 0.468202 42.706177 2.425239 2.993262 -20.039034 -5.665816 -1.989607 -13.449646 -1.684651 -5.704506 40.047928 -2.576304 -2.825176 -18.851357 -0.057023 -0.924868 
-0.011398 41.681705 0.545271 -2.843460 -1.960480 3.534800 -19.014999 2.341290 -3.738830 15.359800 5.154620 -1.766870 8.202570 15.102000 -6.386320 11.528900 10.985800 -2.172770 2.000000 -2.000000 0.000000 61.044998 -129.714005 56.879601 53.535599 -0.296103 0.110006 0.046024 -0.021078 -144.470993 -2.000000 2.000000 0.000000 -134.102997 137.852005 0.085454 -74.190002 0.252098 0.131551 -0.054628 0.001183 -133.854996 -14.703321 1.845722 1.322485 41.924427 2.393273 2.968081 -19.725613 -6.280908 -2.234671 -14.197185 -3.252565 -4.396816 40.841705 -2.575230 -2.849777 -19.136871 -0.936384 -1.239737 
0.309856 41.632198 0.556559 -2.461040 -0.526857 3.499210 -19.131100 1.753660 -3.749540 15.106400 4.967790 -1.850250 7.881280 14.750500 -6.178710 11.298300 10.924000 -2.098970 2.000000 -2.000000 0.000000 62.496601 -132.126007 57.130501 56.367699 -0.290572 0.113885 0.045982 -0.020753 -144.352997 -2.000000 2.000000 0.000000 -131.964005 141.660995 0.353188 -77.402901 0.244667 0.133432 -0.054726 -0.000482 -133.259995 -14.639479 0.146609 2.129379 41.173344 2.341034 2.944842 -19.481323 -6.959629 -2.496067 -15.052065 -4.879155 -3.270228 42.018578 -2.577312 -2.916367 -19.495434 -1.877884 -1.609702 
0.631108 41.582813 0.567848 -2.070570 0.907610 3.473050 -19.249201 1.160990 -3.745730 14.843400 4.771210 -1.931830 7.571500 14.397700 -5.966500 11.058200 10.871900 -2.033250 2.000000 -2.000000 0.000000 63.908600 -134.529007 57.442699 59.209499 -0.284835 0.117499 0.045943 -0.020455 -144.246002 -2.000000 2.000000 0.000000 -129.940994 145.479004 0.435884 -80.615799 0.237142 0.134894 -0.054841 -0.002146 -132.664001 -14.598377 -1.565706 2.945076 40.411652 2.307036 2.929285 -19.262062 -7.627357 -2.783693 -15.905588 -6.483442 -2.100419 43.097958 -2.562778 -2.968961 -19.811460 -2.845388 -1.967457 
0.902977 41.488037 0.571453 -1.681070 2.323220 3.623300 -19.096201 0.474941 -3.656520 14.954800 4.315310 -1.955590 7.266930 14.321700 -5.927300 10.979200 10.893300 -1.987080 2.000000 -2.000000 0.000000 65.310204 -136.863998 57.801201 62.051300 -0.278926 0.120824 0.046010 -0.020970 -144.432007 -2.000000 2.000000 0.000000 -127.663002 149.337006 0.524125 -83.965401 0.229222 0.135967 -0.055025 -0.004408 -131.852997 -14.761915 -3.181320 3.927369 40.003853 2.256043 2.929663 -19.048588 -8.144536 -3.002127 -16.856876 -8.045132 -1.004931 44.432278 -2.536231 -3.021045 -20.259579 -3.840795 -2.377429 
1.174844 41.393257 0.575063 -1.272240 3.739320 3.794150 -18.936300 -0.221448 -3.567400 15.065600 3.859220 -1.972080 6.963250 14.244500 -5.896900 10.900100 10.914600 -1.940950 2.000000 -2.000000 0.000000 -113.307999 -40.821301 -121.778000 64.883301 -0.272881 0.123841 0.046079 -0.021485 -144.617004 -2.000000 2.000000 0.000000 -125.472000 153.194000 0.422033 -87.315002 0.221254 0.136575 -0.055244 -0.006695 -131.033005 -14.899468 -4.804036 4.909628 39.459850 2.190886 2.928672 -18.780275 -8.664248 -3.237702 -17.861473 -9.579041 0.125961 45.736393 -2.524346 -3.079062 -20.694164 -4.829254 -2.770628 
